<?xml version="1.0" encoding="utf-8"?>
<!-- Generator: Adobe Illustrator 24.3.0, SVG Export Plug-In . SVG Version: 6.00 Build 0)  -->
<svg version="1.1" id="Layer_1" xmlns="http://www.w3.org/2000/svg" xmlns:xlink="http://www.w3.org/1999/xlink" x="0px" y="0px"
	 viewBox="230 150 342 322" style="enable-background:new 0 0 792 612;" xml:space="preserve">
<style type="text/css">
	.st0{fill:#FFFFFF;}
</style>
<g>
	<g>
		<g>
			<path class="st0" d="M450.78,248.14h-213.4v67.71h105.27c19.74,0,35.79,16.06,35.79,35.79V457.6h67.71V351.65
				c0-12.58-2.26-24.63-6.39-35.79h11.01c19.74,0,35.79,16.06,35.79,35.79V457.6h67.71V351.65
				C554.28,294.58,507.85,248.14,450.78,248.14z"/>
			<g>
				<path class="st0" d="M237.38,155.18v67.71h213.4c44.54,0,82.59-28.28,97.16-67.82L237.38,155.18z"/>
			</g>
		</g>
	</g>
	<g>
		<g>
			<polygon class="st0" points="307.91,439.58 302.51,429.3 294.56,437.72 292.14,426.41 282.23,432.37 282.95,420.8 271.77,423.86 
				275.59,412.92 264.02,412.85 270.64,403.36 259.49,400.17 268.44,392.81 258.57,386.74 269.18,382.07 261.33,373.57 
				272.79,371.93 267.51,361.61 278.99,363.12 276.69,351.76 287.34,356.31 288.2,344.75 297.23,352.02 301.17,341.14 
				307.91,350.57 314.64,341.14 318.57,352.01 327.6,344.75 328.45,356.31 339.11,351.76 336.81,363.12 348.3,361.61 343.02,371.93 
				354.49,373.57 346.65,382.07 357.25,386.74 347.37,392.81 356.32,400.17 345.17,403.36 351.79,412.85 340.22,412.92 
				344.04,423.86 332.86,420.8 333.58,432.37 323.66,426.4 321.24,437.72 313.3,429.31 			"/>
		</g>
	</g>
</g>
</svg>
